<?xml version="1.0" standalone="no"?>
<!DOCTYPE svg PUBLIC "-//W3C//DTD SVG 20010904//EN"
 "http://www.w3.org/TR/2001/REC-SVG-20010904/DTD/svg10.dtd">
<svg version="1.0" xmlns="http://www.w3.org/2000/svg"
 width="462.000000pt" height="462.000000pt" viewBox="0 0 462.000000 462.000000"
 preserveAspectRatio="xMidYMid meet" >

<g transform="translate(0.000000,462.000000) scale(0.100000,-0.100000)"
fill="#FFFFFF" stroke="black"  >
<path d="M2091 4289 c-450 -47 -891 -264 -1211 -595 -160 -166 -264 -315 -365
-527 -470 -984 -56 -2163 927 -2637 552 -266 1174 -266 1726 0 406 196 717
506 918 915 229 466 266 997 103 1490 -293 888 -1166 1451 -2098 1354z m529
-174 c836 -150 1464 -860 1507 -1702 l6 -123 -774 -2 -774 -3 2 -80 c1 -44 13
-127 28 -185 42 -177 29 -316 -45 -467 -54 -109 -131 -188 -236 -239 -73 -37
-84 -39 -168 -39 -82 0 -98 3 -159 32 -200 95 -306 350 -252 606 18 85 49 154
120 266 30 48 55 92 55 99 0 9 -166 12 -727 12 l-726 0 6 133 c15 314 125 639
306 908 304 452 768 732 1331 803 80 10 408 -3 500 -19z m-964 -1993 c-3 -9
-17 -49 -31 -89 -156 -443 123 -917 540 -917 173 0 345 86 460 232 57 71 128
215 151 307 25 101 23 284 -5 389 -11 43 -18 82 -15 87 3 5 301 9 686 9 l681
0 -7 -62 c-37 -329 -205 -700 -441 -970 -252 -290 -619 -502 -1009 -584 -151
-31 -413 -43 -562 -25 -715 88 -1297 557 -1529 1230 -36 107 -85 323 -85 380
l0 31 586 0 c552 0 586 -1 580 -18z"/>
<path d="M1670 3607 c0 -22 -49 -81 -86 -103 -20 -12 -34 -26 -33 -30 1 -5 17
-18 35 -29 35 -21 84 -80 84 -102 0 -7 5 -13 10 -13 6 0 10 5 10 10 0 23 48
81 88 106 23 15 42 28 42 30 0 1 -18 13 -40 25 -39 22 -90 83 -90 107 0 7 -4
12 -10 12 -5 0 -10 -6 -10 -13z"/>
<path d="M2844 3493 c-309 -341 -541 -703 -764 -1193 -31 -69 -82 -165 -114
-215 -78 -124 -99 -197 -94 -328 3 -88 8 -111 34 -167 41 -86 83 -133 150
-166 47 -23 63 -26 122 -22 82 6 138 33 201 96 125 127 160 302 105 529 -24
98 -26 120 -21 238 14 321 173 782 414 1203 36 62 63 116 60 118 -3 3 -45 -39
-93 -93z m-851 -1864 c13 -30 39 -72 57 -92 18 -21 31 -40 28 -42 -11 -11 -89
57 -113 99 -31 52 -52 158 -41 201 7 28 9 25 26 -40 10 -38 29 -95 43 -126z"/>
<path d="M2091 3269 c-12 -16 -33 -35 -47 -41 l-24 -11 30 -19 c17 -10 36 -29
42 -43 6 -14 14 -25 18 -25 4 0 12 11 18 25 6 14 25 33 42 43 l30 19 -25 11
c-14 6 -33 25 -43 42 l-19 30 -22 -31z"/>
<path d="M1815 3093 c-24 -62 -101 -143 -165 -173 l-50 -23 42 -19 c85 -38
148 -106 179 -191 l13 -37 18 49 c26 68 87 134 158 169 l60 30 -30 11 c-80 27
-157 106 -192 194 l-15 39 -18 -49z"/>
<path d="M703 2020 c-31 -13 -57 -57 -57 -98 0 -26 8 -41 32 -63 44 -40 93
-39 133 0 77 77 -7 202 -108 161z"/>
<path d="M3084 1996 c-33 -33 -36 -40 -31 -79 17 -125 197 -109 197 17 0 38
-48 86 -92 93 -33 5 -41 2 -74 -31z"/>
<path d="M3706 1984 c-20 -21 -26 -37 -26 -69 0 -32 6 -48 26 -69 21 -20 37
-26 69 -26 59 0 95 36 95 95 0 59 -36 95 -95 95 -32 0 -48 -6 -69 -26z"/>
<path d="M1139 1887 c-126 -84 -66 -267 87 -267 45 0 59 5 89 31 80 71 67 196
-25 244 -44 23 -111 19 -151 -8z"/>
<path d="M3485 1723 c-122 -33 -143 -205 -33 -274 26 -15 45 -19 86 -16 45 3
59 9 89 39 90 90 39 242 -84 253 -21 2 -47 1 -58 -2z"/>
<path d="M925 1435 c-28 -27 -30 -37 -14 -68 23 -43 66 -50 99 -17 28 28 25
64 -6 89 -34 27 -50 26 -79 -4z"/>
<path d="M3045 1435 c-30 -29 -32 -58 -5 -85 39 -39 110 -11 110 44 0 25 -41
66 -67 66 -8 0 -25 -11 -38 -25z"/>
<path d="M1428 1415 c-35 -20 -48 -44 -48 -90 0 -72 75 -115 144 -84 33 15 59
71 51 108 -13 62 -92 97 -147 66z"/>
</g>
</svg>
